<svg xmlns="http://www.w3.org/2000/svg" xmlns:xlink="http://www.w3.org/1999/xlink" width="364.16" height="358.611" viewBox="0 0 364.16 358.611">
  <defs>
    <clipPath id="clip-path">
      <rect id="Rettangolo_2" data-name="Rettangolo 2" width="293.594" height="285.236" fill="#e5584b"/>
    </clipPath>
  </defs>
  <g id="Raggruppa_14" data-name="Raggruppa 14" transform="translate(83.395) rotate(17)">
    <g id="Raggruppa_3" data-name="Raggruppa 3" transform="translate(0 0)" clip-path="url(#clip-path)">
      <path id="Tracciato_1" data-name="Tracciato 1" d="M289.51,104.21c-8.89-27.682-26.551-46.762-66.017-34.087a141.1,141.1,0,0,0-27.87,12.744,141.266,141.266,0,0,0,3.613-30.432C199.236,10.985,175.668,0,146.594,0S93.951,10.985,93.951,52.436a139.561,139.561,0,0,0,3.212,28.642A139.564,139.564,0,0,0,71.075,68.816C31.834,55.468,13.848,74.245,4.484,101.767s-6.554,53.377,32.687,66.725a141.1,141.1,0,0,0,29.977,6.378,141.1,141.1,0,0,0-21.041,22.284C21.4,230.433,33.777,253.3,57.119,270.63s48.815,22.559,73.523-10.721a141.254,141.254,0,0,0,15.241-26.593,141.016,141.016,0,0,0,14.778,26.849c24.134,33.7,49.691,28.906,73.328,11.979s36.4-39.577,12.27-73.278A141.123,141.123,0,0,0,225.6,176.227a141.112,141.112,0,0,0,30.08-5.865C295.15,157.69,298.4,131.893,289.51,104.21" transform="translate(0.001 0)" fill="#e5584b"/>
    </g>
  </g>
</svg>
